{"asset": {"version": "2.0", "generator": "wwiitanks-gen"}, "scene": 0, "scenes": [{"nodes": [0]}], "nodes": [{"mesh": 0, "name": "shell"}], "meshes": [{"name": "shell", "primitives": [{"attributes": {"POSITION": 1, "NORMAL": 2, "TEXCOORD_0": 3}, "indices": 0, "mode": 4}]}], "buffers": [{"byteLength": 840, "uri": "data:application/octet-stream;base64,"}], "bufferViews": [{"buffer": 0, "byteOffset": 0, "byteLength": 72, "target": 34963}, {"buffer": 0, "byteOffset": 72, "byteLength": 288, "target": 34962}, {"buffer": 0, "byteOffset": 360, "byteLength": 288, "target": 34962}, {"buffer": 0, "byteOffset": 648, "byteLength": 192, "target": 34962}], "accessors": [{"bufferView": 0, "componentType": 5123, "count": 36, "type": "SCALAR"}, {"bufferView": 1, "componentType": 5126, "count": 24, "type": "VEC3", "min": [-0.09, -0.09, -0.225], "max": [0.09, 0.09, 0.225]}, {"bufferView": 2, "componentType": 5126, "count": 24, "type": "VEC3"}, {"bufferView": 3, "componentType": 5126, "count": 24, "type": "VEC2"}]}