{"asset": {"version": "2.0", "generator": "wwiitanks-gen"}, "scene": 0, "scenes": [{"nodes": [0]}], "nodes": [{"mesh": 0, "name": "hull"}], "meshes": [{"name": "hull", "primitives": [{"attributes": {"POSITION": 1, "NORMAL": 2, "TEXCOORD_0": 3}, "indices": 0, "mode": 4}]}], "buffers": [{"byteLength": 4200, "uri": "data:application/octet-stream;base64,"}], "bufferViews": [{"buffer": 0, "byteOffset": 0, "byteLength": 360, "target": 34963}, {"buffer": 0, "byteOffset": 360, "byteLength": 1440, "target": 34962}, {"buffer": 0, "byteOffset": 1800, "byteLength": 1440, "target": 34962}, {"buffer": 0, "byteOffset": 3240, "byteLength": 960, "target": 34962}], "accessors": [{"bufferView": 0, "componentType": 5123, "count": 180, "type": "SCALAR"}, {"bufferView": 1, "componentType": 5126, "count": 120, "type": "VEC3", "min": [-1.23, 0.0, -1.625], "max": [1.23, 0.99, 1.6500000000000001]}, {"bufferView": 2, "componentType": 5126, "count": 120, "type": "VEC3"}, {"bufferView": 3, "componentType": 5126, "count": 120, "type": "VEC2"}]}