{"asset": {"version": "2.0", "generator": "wwiitanks-gen"}, "scene": 0, "scenes": [{"nodes": [0]}], "nodes": [{"mesh": 0, "name": "turret_de"}], "meshes": [{"name": "turret_de", "primitives": [{"attributes": {"POSITION": 1, "NORMAL": 2, "TEXCOORD_0": 3}, "indices": 0, "mode": 4}]}], "buffers": [{"byteLength": 2520, "uri": "data:application/octet-stream;base64,"}], "bufferViews": [{"buffer": 0, "byteOffset": 0, "byteLength": 216, "target": 34963}, {"buffer": 0, "byteOffset": 216, "byteLength": 864, "target": 34962}, {"buffer": 0, "byteOffset": 1080, "byteLength": 864, "target": 34962}, {"buffer": 0, "byteOffset": 1944, "byteLength": 576, "target": 34962}], "accessors": [{"bufferView": 0, "componentType": 5123, "count": 108, "type": "SCALAR"}, {"bufferView": 1, "componentType": 5126, "count": 72, "type": "VEC3", "min": [-0.775, 0.010000000000000009, -0.775], "max": [0.775, 0.73, 2.5999999999999996]}, {"bufferView": 2, "componentType": 5126, "count": 72, "type": "VEC3"}, {"bufferView": 3, "componentType": 5126, "count": 72, "type": "VEC2"}]}